<svg width="61" height="62" viewBox="0 0 61 62" fill="none" xmlns="http://www.w3.org/2000/svg">
<path fill-rule="evenodd" clip-rule="evenodd" d="M30.5694 0H30.4306C13.6242 0 0 13.6282 0 30.4395V30.5785C0 47.3897 13.6242 61.0179 30.4306 61.0179H30.5694C47.3758 61.0179 61 47.3897 61 30.5785V30.4395C61 13.6282 47.3758 0 30.5694 0ZM15.5474 20.2808C14.7438 19.5347 14.3442 18.6112 14.3442 17.5124C14.3442 16.4136 14.746 15.4495 15.5474 14.7013C16.351 13.9552 17.3853 13.5811 18.6527 13.5811C19.92 13.5811 20.9137 13.9552 21.7152 14.7013C22.5187 15.4474 22.9183 16.3858 22.9183 17.5124C22.9183 18.639 22.5166 19.5347 21.7152 20.2808C20.9116 21.0269 19.8922 21.401 18.6527 21.401C17.4131 21.401 16.351 21.0269 15.5474 20.2808ZM22.243 24.5606V47.4346H15.0174V24.5606H22.243ZM48.6578 33.8663C48.6578 30.8777 47.8714 28.5304 46.2963 26.8202V26.8181C44.7234 25.11 42.6162 24.2549 39.979 24.2549C38.498 24.2549 37.1665 24.5435 35.9826 25.1229C34.7986 25.7022 33.8561 26.4889 33.1573 27.4851V24.4965H26.2544V47.0306H33.1573V34.7941C33.1573 33.2869 33.5483 32.1154 34.3284 31.2817C35.1084 30.4459 36.16 30.029 37.4764 30.029C38.7929 30.029 39.8444 30.448 40.6244 31.2817C41.4045 32.1154 41.7956 33.2869 41.7956 34.7941V47.0306H48.6578V33.8663Z" fill="#FFDC2B"/>
</svg>
