<svg width="533" height="533" viewBox="0 0 533 533" fill="none" xmlns="http://www.w3.org/2000/svg">
<path d="M260.955 480.217L257.644 505.199L254.717 504.811L246.014 484.447L247.584 484.655L234.019 502.068L231.092 501.68L234.368 476.693L237.794 477.147L235.232 496.745L234.412 496.636L246.456 481.382L248.098 481.6L255.824 499.474L254.932 499.356L257.529 479.763L260.955 480.217Z" fill="#FD4E22"/>
<path d="M201.894 470.015L181.572 488.783L178.289 487.396L177.555 459.727L181.037 461.199L181.395 486.52L180.068 485.959L198.479 468.571L201.894 470.015ZM194.965 473.925L192.948 476.2L179.883 470.677L180.043 467.618L194.965 473.925Z" fill="#FD4E22"/>
<path d="M147.316 450.296L144.86 453.941L124.623 457.336L121.316 454.905L137.13 452.055L140.077 451.451L147.316 450.296ZM153.473 447.271L138.544 467.573L135.644 465.44L150.573 445.138L153.473 447.271ZM139.087 436.693L140.288 452.501L136.767 453.218L135.694 434.198L139.087 436.693Z" fill="#FD4E22"/>
<path d="M101.771 422.978L93.359 413.119L95.6867 411.133L104.099 420.992L101.771 422.978ZM110.078 415.464L100.544 404.291L102.926 402.258L114.797 416.17L95.6273 432.527L84.0838 418.999L86.4663 416.966L95.6731 427.755L110.078 415.464Z" fill="#FD4E22"/>
<path d="M71.4833 350.26C72.1916 352.045 72.6012 353.857 72.7122 355.698C72.8009 357.548 72.5961 359.114 72.098 360.396L68.9967 360.194C69.4233 358.992 69.6186 357.598 69.5828 356.011C69.5469 354.424 69.2323 352.884 68.6391 351.389C68.099 350.028 67.5046 348.986 66.8558 348.262C66.2071 347.539 65.5353 347.082 64.8406 346.893C64.1235 346.713 63.4193 346.76 62.7277 347.035C61.9247 347.353 61.384 347.878 61.1058 348.608C60.8187 349.316 60.6983 350.151 60.7448 351.114C60.7601 352.063 60.8554 353.084 61.0308 354.177C61.2061 355.269 61.3525 356.386 61.4698 357.527C61.5559 358.655 61.533 359.735 61.401 360.769C61.2601 361.78 60.9011 362.697 60.324 363.52C59.7246 364.352 58.8003 365.016 57.5511 365.512C56.3465 365.99 55.1184 366.116 53.8666 365.89C52.5837 365.65 51.38 364.992 50.2553 363.915C49.0994 362.824 48.1142 361.253 47.2997 359.201C46.7596 357.84 46.4024 356.419 46.228 354.939C46.0537 353.459 46.1064 352.096 46.386 350.848L49.5011 350.89C49.2303 352.16 49.1713 353.41 49.324 354.64C49.4544 355.879 49.7277 357.023 50.1438 358.072C50.6662 359.388 51.2629 360.403 51.934 361.118C52.605 361.833 53.2991 362.281 54.0162 362.461C54.7243 362.619 55.4242 362.56 56.1157 362.286C56.9411 361.958 57.4973 361.44 57.7844 360.733C58.0627 360.002 58.183 359.167 58.1454 358.227C58.099 357.264 57.9992 356.232 57.8461 355.131C57.6708 354.038 57.5289 352.933 57.4204 351.814C57.3032 350.673 57.3149 349.596 57.4558 348.585C57.5878 347.551 57.9423 346.623 58.5194 345.8C59.0965 344.977 59.9985 344.322 61.2254 343.835C62.4077 343.366 63.6403 343.251 64.9232 343.491C66.1838 343.739 67.3964 344.42 68.5611 345.533C69.6946 346.632 70.6687 348.208 71.4833 350.26Z" fill="#FD4E22"/>
<path d="M57.7325 304.754C58.0003 306.655 57.9288 308.47 57.5181 310.201C57.1041 311.907 56.4104 313.435 55.437 314.784C54.4399 316.136 53.2158 317.254 51.7648 318.137C50.3137 319.02 48.6732 319.59 46.8433 319.848C45.0134 320.106 43.2792 320.01 41.6407 319.563C40.0022 319.115 38.5289 318.377 37.2208 317.349C35.8889 316.325 34.7884 315.05 33.9191 313.525C33.0498 311.999 32.4796 310.274 32.2084 308.349C31.9407 306.447 32.0155 304.655 32.4329 302.973C32.8231 301.27 33.5168 299.742 34.514 298.39C35.484 297.017 36.6962 295.901 38.1506 295.042C39.6016 294.159 41.254 293.587 43.1077 293.326C44.9614 293.065 46.7075 293.158 48.3459 293.606C49.9811 294.03 51.4663 294.766 52.8015 295.814C54.1096 296.841 55.1983 298.118 56.0676 299.644C56.9097 301.149 57.4647 302.852 57.7325 304.754ZM54.5598 305.2C54.3657 303.822 53.9489 302.584 53.3096 301.486C52.6669 300.365 51.8576 299.437 50.8815 298.702C49.8783 297.946 48.761 297.413 47.5296 297.102C46.2948 296.767 44.9882 296.696 43.6098 296.89C42.2314 297.085 40.9951 297.513 39.9009 298.176C38.8033 298.816 37.8887 299.635 37.157 300.635C36.3982 301.614 35.8648 302.732 35.5568 303.987C35.2456 305.218 35.187 306.523 35.3811 307.902C35.5786 309.304 35.9987 310.566 36.6414 311.687C37.2807 312.784 38.102 313.711 39.1051 314.466C40.0845 315.225 41.1916 315.772 42.4264 316.107C43.6579 316.419 44.9628 316.477 46.3412 316.283C47.7196 316.089 48.9576 315.672 50.0551 315.033C51.1494 314.37 52.0742 313.537 52.8297 312.533C53.5614 311.534 54.0829 310.418 54.3942 309.186C54.7021 307.931 54.7573 306.603 54.5598 305.2Z" fill="#FD4E22"/>
<path d="M53.1761 258.372L28.2482 254.679L28.6808 251.759L49.1758 243.367L48.9436 244.934L31.7407 231.104L32.1734 228.184L57.1066 231.841L56.6001 235.26L37.0442 232.399L37.1655 231.58L52.2331 243.857L51.9904 245.495L34 252.947L34.1319 252.057L53.6826 254.953L53.1761 258.372Z" fill="#FD4E22"/>
<path d="M54.035 187.313L59.218 175.435L62.0226 176.659L56.8397 188.537L54.035 187.313ZM64.4263 191.494L70.3003 178.032L73.171 179.284L65.8572 196.046L42.7602 185.968L49.8723 169.668L52.743 170.921L47.0705 183.921L64.4263 191.494Z" fill="#FD4E22"/>
<path d="M89.8989 149.028L71.9756 136.153L66.935 143.17L64.3912 141.343L76.5517 124.414L79.0954 126.241L74.0548 133.259L91.9781 146.133L89.8989 149.028Z" fill="#FD4E22"/>
<path d="M109.635 88.7659L112.347 86.3988L128.917 105.385L126.204 107.752L109.635 88.7659ZM115.301 117.268L112.588 119.635L96.0189 100.649L98.7312 98.2815L115.301 117.268ZM119.063 99.0768L107.644 109.042L105.585 106.682L117.004 96.7171L119.063 99.0768Z" fill="#FD4E22"/>
<path d="M156.081 85.7291L143.452 63.922L146.567 62.1178L159.196 83.9249L156.081 85.7291Z" fill="#FD4E22"/>
<path d="M179.217 72.6752L170.995 48.854L173.786 47.891L196.295 62.0206L194.832 62.5256L188.078 42.9582L191.481 41.7837L199.703 65.6049L196.912 66.568L174.403 52.4384L175.866 51.9333L182.62 71.5008L179.217 72.6752Z" fill="#FD4E22"/>
<path d="M244.298 56.2426C242.36 56.3893 240.554 56.2131 238.879 55.714C237.203 55.191 235.723 54.4004 234.44 53.3422C233.154 52.2601 232.118 50.9667 231.33 49.4618C230.542 47.957 230.078 46.2712 229.936 44.4045C229.795 42.5379 230.001 40.8014 230.553 39.1952C231.105 37.5889 231.936 36.1661 233.046 34.9269C234.178 33.6619 235.534 32.6567 237.114 31.9113C238.692 31.142 240.463 30.6831 242.425 30.5346C244.412 30.3843 246.255 30.5697 247.955 31.0909C249.655 31.6121 251.129 32.4754 252.375 33.6808L250.318 36.0749C249.213 35.1476 248.033 34.5028 246.778 34.1405C245.545 33.7524 244.223 33.6118 242.811 33.7186C241.375 33.8273 240.053 34.168 238.844 34.7408C237.66 35.3118 236.646 36.0625 235.802 36.9928C234.981 37.9214 234.365 39.0029 233.953 40.2375C233.563 41.4464 233.421 42.7449 233.526 44.1329C233.629 45.497 233.965 46.7592 234.535 47.9196C235.126 49.0542 235.898 50.0307 236.85 50.8492C237.825 51.6419 238.941 52.2314 240.197 52.6177C241.454 53.004 242.8 53.1428 244.236 53.0341C245.576 52.9327 246.841 52.6324 248.031 52.1332C249.243 51.6083 250.338 50.8154 251.317 49.7545L253.57 52.3278C252.405 53.475 251.006 54.3872 249.372 55.0644C247.761 55.7158 246.069 56.1086 244.298 56.2426ZM250.088 52.122L249.382 42.7886L252.828 42.5279L253.57 52.3278L250.088 52.122Z" fill="#FD4E22"/>
<path d="M320.614 62.0958C318.779 61.5315 317.165 60.6963 315.773 59.5901C314.403 58.491 313.314 57.2146 312.506 55.7608C311.705 54.284 311.212 52.7013 311.028 51.0127C310.845 49.3241 311.024 47.5966 311.567 45.8302C312.111 44.0639 312.933 42.5339 314.033 41.2403C315.134 39.9468 316.428 38.9258 317.913 38.1774C319.406 37.4061 321.027 36.9505 322.778 36.8109C324.528 36.6712 326.332 36.8871 328.19 37.4585C330.026 38.0228 331.616 38.851 332.963 39.943C334.339 41.0191 335.428 42.2956 336.23 43.7724C337.061 45.2333 337.557 46.8045 337.718 48.486C337.902 50.1746 337.718 51.9136 337.168 53.7029C336.618 55.4922 335.792 57.0337 334.692 58.3272C333.614 59.6278 332.317 60.6603 330.801 61.4246C329.316 62.173 327.698 62.617 325.947 62.7567C324.227 62.8805 322.449 62.6602 320.614 62.0958ZM321.556 59.0334C322.886 59.4425 324.184 59.5905 325.449 59.4774C326.737 59.3713 327.921 59.0323 329.001 58.4605C330.111 57.8727 331.068 57.0873 331.872 56.1044C332.7 55.1285 333.318 53.9753 333.727 52.6448C334.136 51.3142 334.273 50.0129 334.137 48.7407C334.024 47.4756 333.67 46.2996 333.075 45.2127C332.51 44.11 331.725 43.1529 330.719 42.3414C329.736 41.5369 328.579 40.9301 327.249 40.5209C325.895 40.1047 324.574 39.9497 323.286 40.0557C322.021 40.1689 320.834 40.5193 319.724 41.1071C318.621 41.6719 317.656 42.4423 316.829 43.4182C316.024 44.4011 315.418 45.5579 315.008 46.8884C314.599 48.2189 314.451 49.5167 314.564 50.7819C314.7 52.0541 315.062 53.245 315.65 54.3548C316.245 55.4417 317.034 56.3873 318.017 57.1918C319.023 58.0033 320.202 58.6172 321.556 59.0334Z" fill="#FD4E22"/>
<path d="M364.148 77.8634L377.671 56.5995L380.162 58.1837L383.118 84.5954L381.812 83.7646L392.92 66.2979L395.958 68.2299L382.435 89.4937L379.944 87.9095L376.988 61.4978L378.294 62.3286L367.185 79.7953L364.148 77.8634Z" fill="#FD4E22"/>
<path d="M429.398 131.219L446.823 117.677L441.521 110.855L443.994 108.933L456.785 125.391L454.312 127.313L449.01 120.491L431.586 134.033L429.398 131.219Z" fill="#FD4E22"/>
<path d="M481.601 167.217L483.103 170.489L460.2 181.001L458.699 177.729L481.601 167.217ZM452.661 164.577L451.16 161.305L474.062 150.793L475.564 154.064L452.661 164.577ZM469.042 173.338L462.719 159.564L465.566 158.258L471.888 172.032L469.042 173.338Z" fill="#FD4E22"/>
<path d="M486.681 213.702L489.063 226.441L486.055 227.004L483.673 214.265L486.681 213.702ZM475.735 216.078L478.435 230.516L475.356 231.092L471.995 213.115L496.766 208.484L500.034 225.965L496.956 226.541L494.349 212.598L475.735 216.078Z" fill="#FD4E22"/>
<path d="M478.008 291.302L504.415 288.36L503.636 291.985L479.273 294.667L479.666 292.836L500.716 305.571L500.021 308.809L475.635 311.596L476.013 309.836L497.101 322.395L496.382 325.739L473.515 312.208L474.309 308.513L496.935 305.863L496.73 306.814L477.198 295.068L478.008 291.302Z" fill="#FD4E22"/>
<path d="M471.189 364.076L465.034 375.481L462.341 374.028L468.497 362.623L471.189 364.076ZM461.183 359.044L454.207 371.969L451.451 370.482L460.137 354.388L482.313 366.357L473.866 382.007L471.11 380.519L477.847 368.037L461.183 359.044Z" fill="#FD4E22"/>
<path d="M435.597 395.92L454.327 412.778L446.765 421.18C444.822 423.338 442.892 424.604 440.975 424.977C439.075 425.366 437.376 424.886 435.877 423.537C434.86 422.622 434.213 421.62 433.934 420.53C433.64 419.457 433.651 418.369 433.967 417.265C434.282 416.161 434.842 415.163 435.644 414.271L436.014 415.475C435.05 416.545 434.012 417.322 432.899 417.806C431.786 418.289 430.647 418.442 429.482 418.266C428.335 418.105 427.226 417.543 426.156 416.58C424.55 415.135 423.847 413.405 424.047 411.389C424.249 409.407 425.417 407.23 427.553 404.857L435.597 395.92ZM435.356 400.546L429.816 406.701C428.484 408.181 427.714 409.539 427.507 410.773C427.3 412.008 427.732 413.107 428.802 414.07C429.89 415.049 431.037 415.371 432.243 415.036C433.449 414.701 434.719 413.793 436.051 412.312L441.807 405.917L443.974 407.868L438.821 413.594C437.6 414.95 436.903 416.227 436.728 417.426C436.553 418.624 436.965 419.673 437.964 420.572C438.963 421.472 440.05 421.771 441.223 421.472C442.397 421.172 443.594 420.344 444.815 418.988L449.752 413.503L435.356 400.546Z" fill="#FD4E22"/>
<path d="M379.179 446.597L392.127 468.216L389.039 470.066L376.091 448.447L379.179 446.597Z" fill="#FD4E22"/>
<path d="M349.463 461.853C351.248 461.146 353.061 460.738 354.902 460.628C356.752 460.54 358.318 460.746 359.599 461.245L359.395 464.346C358.194 463.919 356.799 463.722 355.213 463.757C353.626 463.792 352.085 464.106 350.59 464.698C349.229 465.238 348.186 465.831 347.462 466.48C346.738 467.128 346.281 467.799 346.092 468.494C345.911 469.211 345.958 469.915 346.232 470.607C346.55 471.41 347.075 471.951 347.805 472.23C348.512 472.517 349.347 472.638 350.31 472.592C351.26 472.578 352.28 472.483 353.373 472.308C354.465 472.134 355.582 471.988 356.724 471.871C357.851 471.786 358.932 471.809 359.966 471.942C360.977 472.084 361.894 472.443 362.716 473.021C363.548 473.621 364.211 474.545 364.706 475.795C365.184 477 365.309 478.228 365.082 479.479C364.841 480.762 364.182 481.966 363.105 483.09C362.013 484.245 360.441 485.229 358.389 486.042C357.028 486.582 355.607 486.938 354.127 487.111C352.647 487.285 351.283 487.231 350.036 486.951L350.08 483.836C351.349 484.107 352.599 484.167 353.829 484.015C355.069 483.886 356.213 483.613 357.262 483.198C358.578 482.676 359.594 482.08 360.309 481.409C361.024 480.739 361.472 480.045 361.653 479.328C361.811 478.62 361.753 477.92 361.479 477.228C361.152 476.403 360.635 475.846 359.927 475.559C359.197 475.28 358.362 475.159 357.421 475.196C356.459 475.242 355.427 475.341 354.325 475.493C353.233 475.668 352.127 475.809 351.008 475.917C349.867 476.034 348.79 476.021 347.779 475.88C346.746 475.747 345.818 475.392 344.995 474.815C344.172 474.237 343.518 473.335 343.032 472.107C342.563 470.925 342.449 469.692 342.69 468.409C342.939 467.149 343.62 465.937 344.734 464.773C345.834 463.64 347.41 462.667 349.463 461.853Z" fill="#FD4E22"/>
<path d="M315.72 473.021C316.375 472.87 316.988 472.963 317.558 473.3C318.133 473.66 318.502 474.191 318.663 474.893C318.825 475.595 318.723 476.221 318.357 476.773C317.991 477.325 317.481 477.677 316.826 477.828C316.195 477.973 315.606 477.874 315.059 477.532C314.489 477.196 314.123 476.676 313.962 475.975C313.8 475.273 313.9 474.635 314.26 474.059C314.602 473.512 315.089 473.166 315.72 473.021Z" fill="#FD4E22"/>
<path d="M295.285 476.873C295.951 476.787 296.551 476.94 297.086 477.331C297.623 477.746 297.938 478.31 298.03 479.024C298.122 479.738 297.959 480.352 297.541 480.866C297.123 481.379 296.581 481.679 295.914 481.765C295.271 481.847 294.695 481.692 294.184 481.298C293.65 480.907 293.337 480.354 293.245 479.64C293.153 478.926 293.315 478.3 293.729 477.763C294.123 477.252 294.642 476.956 295.285 476.873Z" fill="#FD4E22"/>
<path d="M274.57 478.703C275.241 478.683 275.824 478.894 276.317 479.335C276.811 479.801 277.069 480.393 277.091 481.113C277.112 481.833 276.89 482.428 276.423 482.898C275.957 483.368 275.388 483.613 274.717 483.633C274.069 483.652 273.51 483.441 273.041 482.999C272.548 482.557 272.29 481.977 272.269 481.257C272.247 480.537 272.469 479.93 272.935 479.436C273.377 478.967 273.922 478.723 274.57 478.703Z" fill="#FD4E22"/>
</svg>
