<svg width="321" height="150" viewBox="0 0 321 150" fill="none" xmlns="http://www.w3.org/2000/svg">
<path d="M292.583 148.668C287.629 148.668 283.053 147.912 278.856 146.4C274.717 144.831 271.103 142.622 268.014 139.773C264.983 136.924 262.622 133.553 260.931 129.658C259.241 125.763 258.396 121.461 258.396 116.752C258.396 112.043 259.241 107.741 260.931 103.846C262.622 99.9509 265.012 96.5791 268.101 93.7305C271.191 90.8819 274.834 88.7019 279.031 87.1904C283.286 85.6207 287.949 84.8359 293.02 84.8359C299.083 84.8359 304.475 85.8533 309.196 87.888C313.976 89.9227 317.911 92.8294 321 96.6082C321 96.6082 315.476 97.4182 314.399 102.407C313.321 107.396 307.797 108.206 307.797 108.206C305.874 105.997 303.775 104.34 301.502 103.236C299.287 102.073 296.809 101.491 294.07 101.491C291.796 101.491 289.727 101.84 287.862 102.538C286.055 103.236 284.51 104.253 283.228 105.59C281.945 106.927 280.954 108.526 280.255 110.386C279.555 112.246 279.206 114.368 279.206 116.752C279.206 119.019 279.555 121.112 280.255 123.03C280.954 124.891 281.945 126.489 283.228 127.826C284.51 129.164 286.026 130.21 287.774 130.966C289.581 131.663 291.592 132.012 293.807 132.012C296.139 132.012 298.412 131.634 300.627 130.879C302.842 130.065 305.203 128.698 307.71 126.78L319.251 140.907C315.521 143.407 311.265 145.325 306.486 146.662C301.706 147.999 297.072 148.668 292.583 148.668ZM301.327 138.291V115.095C301.327 115.095 306.18 117.428 310.289 115.095C314.399 112.762 319.251 115.095 319.251 115.095V140.907L301.327 138.291Z" fill="#FBB4E7"/>
<path d="M148.225 148.668C143.25 148.668 138.626 147.883 134.354 146.313C130.14 144.744 126.482 142.534 123.38 139.686C120.278 136.779 117.849 133.378 116.093 129.483C114.396 125.588 113.547 121.344 113.547 116.752C113.547 112.101 114.396 107.857 116.093 104.02C117.849 100.125 120.278 96.7535 123.38 93.9049C126.482 90.9982 130.14 88.76 134.354 87.1904C138.626 85.6207 143.25 84.8359 148.225 84.8359C153.258 84.8359 157.882 85.6207 162.096 87.1904C166.31 88.76 169.968 90.9982 173.07 93.9049C176.172 96.7535 178.571 100.125 180.269 104.02C182.025 107.857 182.903 112.101 182.903 116.752C182.903 121.344 182.025 125.588 180.269 129.483C178.571 133.378 176.172 136.779 173.07 139.686C169.968 142.534 166.31 144.744 162.096 146.313C157.882 147.883 153.258 148.668 148.225 148.668ZM148.225 132.012C150.156 132.012 151.941 131.663 153.58 130.966C155.277 130.268 156.741 129.28 157.97 128.001C159.257 126.664 160.252 125.065 160.955 123.205C161.657 121.286 162.008 119.135 162.008 116.752C162.008 114.368 161.657 112.246 160.955 110.386C160.252 108.468 159.257 106.869 157.97 105.59C156.741 104.253 155.277 103.236 153.58 102.538C151.941 101.84 150.156 101.491 148.225 101.491C146.293 101.491 144.479 101.84 142.782 102.538C141.143 103.236 139.68 104.253 138.392 105.59C137.163 106.869 136.197 108.468 135.495 110.386C134.793 112.246 134.441 114.368 134.441 116.752C134.441 119.135 134.793 121.286 135.495 123.205C136.197 125.065 137.163 126.664 138.392 128.001C139.68 129.28 141.143 130.268 142.782 130.966C144.479 131.663 146.293 132.012 148.225 132.012Z" fill="#FBB4E7"/>
<path d="M77.1323 108.861H104.323C104.323 108.861 106.525 113.652 104.323 116.313C102.122 118.975 104.323 123.766 104.323 123.766H77.1323V108.861ZM78.5267 131.833H109.029C109.029 131.833 110.908 137.521 109.029 139.637C106.997 141.925 109.029 147.44 109.029 147.44H58.3079V86.0635H107.896C107.896 86.0635 109.656 91.3332 107.896 93.8671C106.137 96.401 107.896 101.671 107.896 101.671H78.5267V131.833Z" fill="#FBB4E7"/>
<path d="M249.34 72.5606V3.81871C249.34 3.81871 252.583 10.1006 258.865 3.81871C265.147 -2.4632 268.391 3.81871 268.391 3.81871L303.351 45.6531H294.513V3.81871C294.513 3.81871 299.205 10.4198 305.806 3.81871C312.407 -2.78239 317.099 3.81871 317.099 3.81871V72.5606C317.099 72.5606 312.868 77.8543 307.574 72.5606C302.28 67.2669 298.048 72.5606 298.048 72.5606L263.088 30.7262H271.926V72.5606C271.926 72.5606 265.85 77.7776 260.633 72.5606C255.416 67.3436 249.34 72.5606 249.34 72.5606Z" fill="#FBB4E7"/>
<path d="M190.268 147.769V85.646C190.268 85.646 193.235 91.323 198.982 85.646C204.729 79.9689 207.697 85.646 207.697 85.646L239.68 123.452H231.595V85.646C231.595 85.646 235.887 91.6115 241.926 85.646C247.965 79.6805 252.258 85.646 252.258 85.646V147.769C252.258 147.769 248.387 152.553 243.544 147.769C238.701 142.985 234.829 147.769 234.829 147.769L202.845 109.963H210.931V147.769C210.931 147.769 205.372 152.484 200.599 147.769C195.827 143.054 190.268 147.769 190.268 147.769Z" fill="#FBB4E7"/>
<path d="M202.138 74.1319C196.573 74.1319 191.401 73.2481 186.622 71.4804C181.908 69.7128 177.816 67.225 174.347 64.017C170.877 60.7436 168.16 56.9137 166.196 52.5273C164.297 48.1409 163.348 43.3617 163.348 38.1897C163.348 32.9523 164.297 28.1731 166.196 23.8521C168.16 19.4658 170.877 15.6686 174.347 12.4606C177.816 9.18721 181.908 6.66668 186.622 4.89903C191.401 3.13138 196.573 2.24756 202.138 2.24756C207.768 2.24756 212.94 3.13138 217.654 4.89903C222.368 6.66668 226.459 9.18721 229.929 12.4606C233.399 15.6686 236.083 19.4658 237.982 23.8521C239.946 28.1731 240.928 32.9523 240.928 38.1897C240.928 43.3617 239.946 48.1409 237.982 52.5273C236.083 56.9137 233.399 60.7436 229.929 64.017C226.459 67.225 222.368 69.7128 217.654 71.4804C212.94 73.2481 207.768 74.1319 202.138 74.1319ZM202.138 55.3752C204.298 55.3752 206.295 54.9824 208.128 54.1968C210.027 53.4112 211.664 52.2982 213.038 50.8579C214.479 49.3521 215.592 47.5517 216.377 45.4567C217.163 43.2963 217.556 40.8739 217.556 38.1897C217.556 35.5055 217.163 33.1159 216.377 31.0209C215.592 28.8605 214.479 27.0601 213.038 25.6198C211.664 24.114 210.027 22.9683 208.128 22.1827C206.295 21.3971 204.298 21.0043 202.138 21.0043C199.977 21.0043 197.948 21.3971 196.049 22.1827C194.216 22.9683 192.58 24.114 191.139 25.6198C189.764 27.0601 188.684 28.8605 187.899 31.0209C187.113 33.1159 186.72 35.5055 186.72 38.1897C186.72 40.8739 187.113 43.2963 187.899 45.4567C188.684 47.5517 189.764 49.3521 191.139 50.8579C192.58 52.2982 194.216 53.4112 196.049 54.1968C197.948 54.9824 199.977 55.3752 202.138 55.3752Z" fill="#FBB4E7"/>
<path d="M118.896 74.1319C113.331 74.1319 108.159 73.2481 103.38 71.4804C98.6661 69.7128 94.5743 67.225 91.1045 64.017C87.6346 60.7436 84.9177 56.9137 82.9537 52.5273C81.0551 48.1409 80.1058 43.3617 80.1058 38.1897C80.1058 32.9523 81.0551 28.1731 82.9537 23.8521C84.9177 19.4658 87.6346 15.6686 91.1045 12.4606C94.5743 9.18721 98.6661 6.66668 103.38 4.89903C108.159 3.13138 113.331 2.24756 118.896 2.24756C124.526 2.24756 129.698 3.13138 134.412 4.89903C139.126 6.66668 143.217 9.18721 146.687 12.4606C150.157 15.6686 152.841 19.4658 154.74 23.8521C156.704 28.1731 157.686 32.9523 157.686 38.1897C157.686 43.3617 156.704 48.1409 154.74 52.5273C152.841 56.9137 150.157 60.7436 146.687 64.017C143.217 67.225 139.126 69.7128 134.412 71.4804C129.698 73.2481 124.526 74.1319 118.896 74.1319ZM118.896 55.3752C121.056 55.3752 123.053 54.9824 124.886 54.1968C126.785 53.4112 128.421 52.2982 129.796 50.8579C131.237 49.3521 132.35 47.5517 133.135 45.4567C133.921 43.2963 134.314 40.8739 134.314 38.1897C134.314 35.5055 133.921 33.1159 133.135 31.0209C132.35 28.8605 131.237 27.0601 129.796 25.6198C128.421 24.114 126.785 22.9683 124.886 22.1827C123.053 21.3971 121.056 21.0043 118.896 21.0043C116.735 21.0043 114.706 21.3971 112.807 22.1827C110.974 22.9683 109.337 24.114 107.897 25.6198C106.522 27.0601 105.442 28.8605 104.656 31.0209C103.871 33.1159 103.478 35.5055 103.478 38.1897C103.478 40.8739 103.871 43.2963 104.656 45.4567C105.442 47.5517 106.522 49.3521 107.897 50.8579C109.337 52.2982 110.974 53.4112 112.807 54.1968C114.706 54.9824 116.735 55.3752 118.896 55.3752Z" fill="#FBB4E7"/>
<path d="M48.5129 3.81872C48.5129 3.81872 53.608 10.3116 60.1008 3.81872C66.5937 -2.67419 71.6887 3.81872 71.6887 3.81872V72.5606C71.6887 72.5606 65.6248 78.0845 60.1008 72.5606C54.5769 67.0367 48.5129 72.5606 48.5129 72.5606V3.81872ZM27.1047 72.5606C27.1047 72.5606 21.3476 78.3914 15.5168 72.5606C9.686 66.7298 3.92889 72.5606 3.92889 72.5606V3.81872C3.92889 3.81872 9.24488 10.0907 15.5168 3.81872C21.7887 -2.45321 27.1047 3.81872 27.1047 3.81872V72.5606ZM50.0842 47.2243H25.5335V28.173H50.0842V47.2243Z" fill="#FBB4E7"/>
<path d="M22.8698 148.668C18.024 148.668 13.651 147.91 9.7507 146.394C5.85042 144.82 2.60019 142.547 0 139.574C0 139.574 5.62881 139.99 5.62881 133.017C5.62881 126.043 11.2576 126.459 11.2576 126.459C12.9123 128.441 14.5374 129.956 16.133 131.006C17.7285 131.997 19.3832 132.492 21.097 132.492C25.5882 132.492 27.8338 129.956 27.8338 124.885V101.627H6.73685C6.73685 101.627 2.90589 97.6652 6.73685 93.8453C10.5678 90.0254 6.73685 86.0635 6.73685 86.0635H48.4876V123.661C48.4876 132.055 46.3011 138.321 41.928 142.46C37.555 146.598 31.2022 148.668 22.8698 148.668Z" fill="#FBB4E7"/>
<ellipse cx="130.732" cy="40.6447" rx="5.5239" ry="9.82027" fill="#FBB4E7"/>
<ellipse cx="213.591" cy="40.6447" rx="5.5239" ry="9.82027" fill="#FBB4E7"/>
</svg>
