<svg width="61" height="62" viewBox="0 0 61 62" fill="none" xmlns="http://www.w3.org/2000/svg">
<path fill-rule="evenodd" clip-rule="evenodd" d="M30.4306 0H30.5694C47.3758 0 61 13.6282 61 30.4395V30.5785C61 47.3897 47.3758 61.0179 30.5694 61.0179H30.4306C13.6242 61.0179 0 47.3897 0 30.5785V30.4395C0 13.6282 13.6242 0 30.4306 0ZM16.6154 18.25C14.1726 18.25 12.25 20.2596 12.25 22.6667V41.3333C12.25 43.7404 14.1726 45.75 16.6154 45.75H45.3846C47.8274 45.75 49.75 43.7404 49.75 41.3333V22.6667C49.75 20.2596 47.8274 18.25 45.3846 18.25H16.6154ZM30.5205 32.1861L16.0511 21.9724C16.2073 21.8314 16.4085 21.75 16.6154 21.75H45.3846C45.5915 21.75 45.7927 21.8314 45.9489 21.9724L31.4795 32.1861C31.1889 32.3913 30.8111 32.3913 30.5205 32.1861ZM33.4979 35.0455L46.25 26.044V41.3333C46.25 41.8718 45.8307 42.25 45.3846 42.25H16.6154C16.1693 42.25 15.75 41.8718 15.75 41.3333V26.044L28.5021 35.0455C30.0028 36.1048 31.9973 36.1048 33.4979 35.0455Z" fill="#FFDC2B"/>
</svg>
