<svg width="533" height="533" viewBox="0 0 533 533" fill="none" xmlns="http://www.w3.org/2000/svg">
<path d="M251.634 423.009C253.593 423.204 255.44 423.666 257.176 424.393C258.91 425.145 260.259 426.015 261.222 427.003L259.249 430.461C258.325 429.573 257.148 428.792 255.72 428.119C254.291 427.446 252.801 427.032 251.249 426.878C249.935 426.747 248.858 426.784 248.018 426.99C247.177 427.196 246.542 427.518 246.112 427.958C245.68 428.421 245.433 428.964 245.372 429.585C245.295 430.349 245.509 430.985 246.013 431.494C246.515 432.026 247.195 432.467 248.052 432.818C248.883 433.19 249.824 433.549 250.875 433.895C251.902 434.239 252.938 434.619 253.981 435.037C254.999 435.476 255.924 435.99 256.758 436.58C257.566 437.191 258.201 437.954 258.665 438.868C259.128 439.783 259.293 440.908 259.16 442.246C259.025 443.607 258.543 444.813 257.714 445.864C256.86 446.937 255.659 447.734 254.112 448.255C252.538 448.798 250.605 448.955 248.312 448.726C246.808 448.576 245.334 448.237 243.892 447.707C242.449 447.177 241.214 446.5 240.187 445.674L242.016 442.202C243.072 442.983 244.181 443.588 245.345 444.017C246.505 444.47 247.635 444.752 248.734 444.861C250.023 444.99 251.089 444.939 251.932 444.709C252.751 444.478 253.377 444.13 253.809 443.666C254.217 443.201 254.453 442.645 254.518 442C254.594 441.236 254.393 440.589 253.915 440.059C253.411 439.551 252.742 439.122 251.909 438.774C251.051 438.423 250.098 438.063 249.05 437.693C247.999 437.347 246.964 436.967 245.944 436.552C244.9 436.134 243.973 435.632 243.163 435.045C242.33 434.455 241.693 433.704 241.253 432.792C240.79 431.878 240.623 430.764 240.754 429.45C240.887 428.113 241.381 426.908 242.236 425.835C243.064 424.784 244.265 423.987 245.839 423.445C247.41 422.926 249.342 422.781 251.634 423.009Z" fill="#FD4E22"/>
<path d="M224.904 418.984L224.245 445.524L219.671 443.881L220.362 419.915L222.632 420.73L207.643 439.56L203.578 438.1L204.201 414.11L206.403 414.901L191.516 433.767L187.315 432.258L203.695 411.365L208.37 413.044L207.892 434.715L206.672 434.277L220.194 417.292L224.904 418.984Z" fill="#FD4E22"/>
<path d="M174.03 411.977L163.695 404.896L165.872 401.718L176.207 408.799L174.03 411.977ZM179.837 402.864L168.106 394.827L170.324 391.59L185.916 402.272L171.673 423.061L156.497 412.663L158.715 409.426L170.03 417.178L179.837 402.864Z" fill="#FD4E22"/>
<path d="M146.436 390.16L137.755 381.127L140.533 378.458L149.213 387.491L146.436 390.16ZM153.974 382.417L144.121 372.164L146.95 369.445L160.046 383.073L141.875 400.534L129.129 387.27L131.958 384.551L141.462 394.44L153.974 382.417Z" fill="#FD4E22"/>
<path d="M135.932 354.641L118.101 366.183L122.64 373.194L119.316 375.346L107.695 357.395L111.02 355.243L115.558 362.254L133.389 350.712L135.932 354.641Z" fill="#FD4E22"/>
<path d="M109.064 336.516L104.376 324.898L107.948 323.457L112.636 335.074L109.064 336.516ZM118.944 332.141L113.624 318.954L117.263 317.486L124.334 335.013L100.965 344.442L94.0818 327.382L97.7207 325.914L102.853 338.633L118.944 332.141Z" fill="#FD4E22"/>
<path d="M112.394 296.929C112.764 298.862 112.847 300.764 112.643 302.636C112.415 304.512 111.965 306.052 111.291 307.256L107.415 306.349C108.004 305.21 108.418 303.86 108.656 302.299C108.895 300.739 108.868 299.192 108.575 297.66C108.327 296.363 107.985 295.342 107.548 294.594C107.112 293.847 106.622 293.33 106.079 293.043C105.511 292.76 104.921 292.678 104.308 292.795C103.554 292.94 103.005 293.326 102.661 293.954C102.293 294.586 102.063 295.363 101.971 296.285C101.85 297.188 101.774 298.192 101.741 299.298C101.704 300.38 101.633 301.481 101.53 302.6C101.398 303.701 101.169 304.734 100.841 305.701C100.484 306.649 99.9339 307.475 99.189 308.18C98.4442 308.884 97.4117 309.363 96.0917 309.616C94.7481 309.873 93.4547 309.754 92.2114 309.259C90.9401 308.744 89.8346 307.82 88.8949 306.484C87.9271 305.13 87.2266 303.322 86.7935 301.059C86.5093 299.574 86.416 298.064 86.5134 296.531C86.6109 294.997 86.9094 293.62 87.4091 292.401L91.2577 293.167C90.8097 294.401 90.5453 295.637 90.4644 296.874C90.36 298.116 90.4115 299.279 90.619 300.363C90.8626 301.636 91.2143 302.644 91.6742 303.387C92.1295 304.106 92.6407 304.607 93.2079 304.889C93.7706 305.148 94.3702 305.217 95.0066 305.095C95.7609 304.951 96.3242 304.574 96.6964 303.965C97.0405 303.337 97.261 302.574 97.3579 301.676C97.4503 300.754 97.5246 299.738 97.5809 298.628C97.6136 297.522 97.6839 296.421 97.7919 295.325C97.8953 294.206 98.1133 293.174 98.4459 292.231C98.774 291.264 99.3127 290.44 100.062 289.759C100.807 289.055 101.828 288.578 103.124 288.33C104.444 288.078 105.74 288.208 107.011 288.723C108.254 289.218 109.36 290.142 110.328 291.497C111.272 292.855 111.961 294.666 112.394 296.929Z" fill="#FD4E22"/>
<path d="M109.127 270.897L87.8875 271.074L87.9571 279.426L83.9972 279.459L83.8191 258.075L87.7789 258.042L87.8485 266.394L109.088 266.217L109.127 270.897Z" fill="#FD4E22"/>
<path d="M115.148 224.801C114.614 226.696 113.837 228.434 112.817 230.017C111.775 231.593 110.683 232.769 109.541 233.544L106.481 230.999C107.517 230.243 108.491 229.221 109.403 227.932C110.315 226.643 110.982 225.248 111.406 223.747C111.764 222.476 111.915 221.409 111.859 220.546C111.803 219.682 111.596 219 111.239 218.501C110.858 217.994 110.367 217.656 109.766 217.487C109.027 217.279 108.363 217.378 107.775 217.786C107.163 218.187 106.609 218.779 106.114 219.562C105.603 220.316 105.085 221.18 104.561 222.154C104.043 223.105 103.488 224.058 102.895 225.013C102.285 225.938 101.617 226.76 100.891 227.478C100.148 228.166 99.2863 228.659 98.3049 228.956C97.3236 229.253 96.1861 229.219 94.8925 228.854C93.5758 228.483 92.4723 227.798 91.5819 226.799C90.675 225.77 90.1 224.449 89.8569 222.834C89.5972 221.19 89.7799 219.259 90.405 217.042C90.8152 215.586 91.407 214.195 92.1803 212.867C92.9536 211.539 93.8365 210.441 94.829 209.574L97.9282 211.981C96.9754 212.884 96.186 213.871 95.5602 214.941C94.9112 216.005 94.437 217.068 94.1374 218.131C93.7858 219.378 93.6495 220.437 93.7284 221.307C93.8138 222.154 94.047 222.831 94.4279 223.337C94.8153 223.82 95.3209 224.15 95.9446 224.326C96.6837 224.534 97.356 224.449 97.9612 224.071C98.5499 223.664 99.0885 223.08 99.577 222.32C100.072 221.537 100.593 220.661 101.14 219.694C101.664 218.719 102.22 217.766 102.806 216.834C103.4 215.88 104.056 215.055 104.776 214.36C105.502 213.642 106.352 213.146 107.327 212.872C108.308 212.575 109.434 212.606 110.705 212.964C111.998 213.329 113.099 214.025 114.005 215.054C114.896 216.053 115.471 217.375 115.73 219.019C115.967 220.656 115.773 222.584 115.148 224.801Z" fill="#FD4E22"/>
<path d="M121.469 204.602L99.0305 193.132L103.75 183.9C104.766 181.913 105.955 180.377 107.317 179.295C108.69 178.191 110.171 177.56 111.761 177.402C113.351 177.245 114.969 177.587 116.614 178.428C118.26 179.269 119.484 180.38 120.288 181.761C121.091 183.142 121.448 184.713 121.357 186.472C121.277 188.21 120.729 190.073 119.713 192.06L116.173 198.984L115.169 196.125L123.599 200.435L121.469 204.602ZM115.617 196.355L112.647 197.182L116.089 190.45C117.028 188.612 117.348 187.037 117.048 185.725C116.738 184.381 115.878 183.348 114.468 182.627C113.036 181.895 111.695 181.803 110.445 182.35C109.206 182.875 108.117 184.057 107.177 185.895L103.736 192.626L102.635 189.718L115.617 196.355Z" fill="#FD4E22"/>
<path d="M145.447 166.65C144.178 168.153 142.761 169.329 141.198 170.177C139.635 171.024 138.018 171.544 136.348 171.736C134.66 171.913 133.003 171.755 131.378 171.262C129.734 170.754 128.197 169.896 126.766 168.688C125.336 167.481 124.241 166.117 123.483 164.597C122.706 163.062 122.272 161.455 122.181 159.777C122.072 158.083 122.304 156.394 122.877 154.711C123.45 153.028 124.363 151.443 125.617 149.958C126.887 148.454 128.296 147.287 129.843 146.458C131.407 145.611 133.033 145.099 134.721 144.922C136.391 144.73 138.047 144.888 139.691 145.396C141.317 145.889 142.845 146.739 144.275 147.946C145.706 149.154 146.809 150.525 147.586 152.061C148.363 153.596 148.797 155.203 148.888 156.881C148.979 158.559 148.738 160.24 148.165 161.924C147.607 163.589 146.701 165.164 145.447 166.65ZM142.288 164.03C143.108 163.058 143.702 162.02 144.069 160.916C144.435 159.812 144.571 158.702 144.477 157.586C144.364 156.454 144.044 155.383 143.515 154.372C142.984 153.327 142.224 152.386 141.233 151.55C140.243 150.714 139.197 150.13 138.096 149.797C136.992 149.431 135.882 149.294 134.766 149.389C133.632 149.468 132.551 149.78 131.524 150.327C130.498 150.874 129.574 151.633 128.753 152.605C127.933 153.577 127.339 154.615 126.973 155.719C126.622 156.804 126.495 157.922 126.592 159.072C126.686 160.188 126.999 161.269 127.53 162.314C128.059 163.325 128.818 164.249 129.808 165.085C130.78 165.905 131.818 166.499 132.922 166.865C134.041 167.213 135.168 167.348 136.303 167.269C137.419 167.175 138.49 166.854 139.517 166.308C140.544 165.761 141.467 165.002 142.288 164.03Z" fill="#FD4E22"/>
<path d="M167.913 143.971L154.92 127.169L148.313 132.278L145.891 129.146L162.807 116.064L165.229 119.197L158.622 124.306L171.616 141.108L167.913 143.971Z" fill="#FD4E22"/>
<path d="M200.989 123.569L190.882 100.484L195.169 98.6073L205.276 121.692L200.989 123.569Z" fill="#FD4E22"/>
<path d="M216.738 116.832L210.779 92.3466L214.522 91.4357L234.466 106.552L232.612 107.003L228.023 88.1495L232.536 87.0513L238.495 111.536L234.752 112.447L214.808 97.3312L216.662 96.88L221.25 115.734L216.738 116.832Z" fill="#FD4E22"/>
<path d="M274.851 109.518L276.371 88.3327L268.04 87.735L268.323 83.7852L289.652 85.3155L289.369 89.2653L281.039 88.6676L279.519 109.853L274.851 109.518Z" fill="#FD4E22"/>
<path d="M321.512 92.5485L326.01 93.8404L319.053 118.061L314.555 116.769L321.512 92.5485ZM302.03 113.172L297.531 111.88L304.488 87.6593L308.986 88.9511L302.03 113.172ZM317.883 106.488L304.63 102.682L305.733 98.8416L318.986 102.648L317.883 106.488Z" fill="#FD4E22"/>
<path d="M333.116 124.106L344.159 101.455L348.366 103.506L337.323 126.157L333.116 124.106Z" fill="#FD4E22"/>
<path d="M354.559 136.717C352.935 135.605 351.536 134.313 350.363 132.841C349.203 131.349 348.438 129.938 348.068 128.609L351.459 126.524C351.843 127.747 352.5 128.996 353.43 130.272C354.36 131.549 355.468 132.627 356.755 133.508C357.845 134.254 358.807 134.739 359.643 134.962C360.479 135.185 361.191 135.207 361.779 135.028C362.381 134.829 362.858 134.472 363.21 133.957C363.644 133.323 363.762 132.662 363.564 131.974C363.38 131.267 362.996 130.553 362.412 129.833C361.862 129.108 361.209 128.341 360.453 127.533C359.717 126.738 358.992 125.907 358.277 125.04C357.596 124.166 357.031 123.27 356.583 122.353C356.168 121.429 355.977 120.455 356.009 119.43C356.042 118.405 356.438 117.338 357.197 116.229C357.97 115.1 358.972 114.274 360.203 113.75C361.468 113.219 362.904 113.097 364.511 113.383C366.152 113.663 367.923 114.454 369.824 115.755C371.072 116.609 372.201 117.615 373.212 118.772C374.223 119.93 374.981 121.117 375.485 122.335L372.213 124.502C371.662 123.31 370.979 122.246 370.166 121.311C369.365 120.356 368.509 119.567 367.598 118.943C366.529 118.211 365.569 117.743 364.72 117.54C363.89 117.35 363.174 117.354 362.573 117.553C361.991 117.766 361.517 118.14 361.151 118.674C360.717 119.308 360.583 119.972 360.747 120.666C360.945 121.354 361.326 122.051 361.89 122.757C362.474 123.477 363.136 124.25 363.878 125.078C364.634 125.886 365.359 126.718 366.055 127.571C366.77 128.439 367.341 129.325 367.769 130.229C368.218 131.146 368.415 132.11 368.363 133.122C368.33 134.146 367.941 135.203 367.196 136.293C366.437 137.402 365.425 138.221 364.16 138.752C362.929 139.276 361.493 139.398 359.852 139.118C358.225 138.819 356.46 138.018 354.559 136.717Z" fill="#FD4E22"/>
<path d="M383.421 160.241L403.639 145.198L405.938 148.289L397.755 168.108L396.552 166.491L417.779 164.203L420.079 167.293L399.883 182.365L397.239 178.813L411.861 167.888L412.42 168.639L394.586 170.422L393.339 168.746L400.085 152.061L400.729 152.927L386.086 163.823L383.421 160.241Z" fill="#FD4E22"/>
<path d="M411.656 206.885C410.926 205.058 410.554 203.255 410.54 201.477C410.527 199.698 410.828 198.027 411.443 196.463C412.08 194.89 412.998 193.501 414.197 192.298C415.418 191.086 416.898 190.132 418.636 189.437C420.374 188.742 422.092 188.417 423.79 188.461C425.511 188.497 427.133 188.869 428.657 189.578C430.203 190.277 431.585 191.276 432.802 192.573C434.018 193.87 434.988 195.421 435.709 197.226C436.44 199.053 436.808 200.844 436.812 202.6C436.826 204.379 436.514 206.054 435.876 207.627C435.261 209.192 434.343 210.58 433.122 211.792C431.923 212.995 430.455 213.945 428.716 214.64C426.978 215.335 425.249 215.665 423.529 215.629C421.809 215.593 420.186 215.221 418.662 214.513C417.138 213.804 415.768 212.801 414.551 211.504C413.343 210.23 412.378 208.69 411.656 206.885ZM415.454 205.327C415.926 206.508 416.563 207.52 417.365 208.362C418.168 209.205 419.083 209.846 420.113 210.288C421.165 210.72 422.261 210.941 423.402 210.95C424.574 210.972 425.762 210.742 426.965 210.261C428.168 209.78 429.176 209.131 429.987 208.316C430.829 207.514 431.471 206.598 431.912 205.568C432.376 204.53 432.607 203.429 432.607 202.266C432.607 201.103 432.371 199.931 431.899 198.75C431.427 197.569 430.789 196.557 429.987 195.715C429.194 194.895 428.267 194.257 427.206 193.803C426.177 193.361 425.076 193.13 423.904 193.107C422.763 193.098 421.591 193.335 420.387 193.816C419.206 194.288 418.195 194.925 417.352 195.728C416.519 196.552 415.87 197.484 415.407 198.522C414.966 199.551 414.745 200.648 414.745 201.811C414.745 202.974 414.981 204.146 415.454 205.327Z" fill="#FD4E22"/>
<path d="M420.566 232.237L445.525 228.762L447.044 239.673C447.422 242.383 447.229 244.833 446.468 247.023C445.707 249.212 444.479 251.007 442.783 252.406C441.088 253.805 438.981 254.68 436.461 255.031C433.965 255.378 431.699 255.112 429.662 254.233C427.649 253.35 425.977 251.959 424.647 250.06C423.316 248.162 422.462 245.858 422.085 243.148L420.566 232.237ZM425.133 236.326L425.977 242.388C426.239 244.266 426.82 245.832 427.722 247.088C428.627 248.367 429.773 249.286 431.159 249.844C432.549 250.426 434.099 250.598 435.811 250.36C437.546 250.118 438.99 249.53 440.144 248.594C441.325 247.678 442.177 246.481 442.698 245.003C443.222 243.549 443.354 241.883 443.092 240.005L442.248 233.943L425.133 236.326Z" fill="#FD4E22"/>
<path d="M438.459 275.195L437.416 287.68L433.577 287.359L434.62 274.874L438.459 275.195ZM427.667 274.655L426.483 288.825L422.572 288.499L424.146 269.664L449.258 271.763L447.727 290.095L443.816 289.768L444.958 276.1L427.667 274.655Z" fill="#FD4E22"/>
<path d="M420.288 301.649L444.426 308.889L441.447 318.82C440.806 320.958 439.913 322.682 438.768 323.992C437.617 325.326 436.273 326.213 434.737 326.654C433.202 327.096 431.549 327.051 429.779 326.52C428.009 325.989 426.604 325.117 425.565 323.903C424.549 322.696 423.927 321.219 423.699 319.472C423.488 317.755 423.703 315.828 424.344 313.69L426.578 306.241L428.013 308.852L418.944 306.131L420.288 301.649ZM415.551 317.442L426.141 313.965L424.703 318.758L414.103 322.269L415.551 317.442ZM427.53 308.707L430.268 307.348L428.096 314.589C427.503 316.566 427.483 318.177 428.037 319.42C428.584 320.687 429.617 321.548 431.134 322.003C432.674 322.465 434.01 322.314 435.141 321.551C436.265 320.811 437.123 319.452 437.716 317.475L439.888 310.234L441.495 312.896L427.53 308.707Z" fill="#FD4E22"/>
<path d="M409.677 333.214L431.59 345.659L429.687 349.009L405.01 353.168L405.952 351.509L422.825 361.092L420.531 365.13L398.619 352.685L400.521 349.335L425.199 345.176L424.256 346.835L407.384 337.252L409.677 333.214Z" fill="#FD4E22"/>
<path d="M379.179 377.283L395.666 396.341L387.335 403.549C385.266 405.339 383.106 406.51 380.854 407.061C378.602 407.613 376.428 407.558 374.332 406.896C372.236 406.234 370.356 404.941 368.691 403.017C367.043 401.111 366.034 399.065 365.664 396.877C365.311 394.708 365.569 392.548 366.439 390.399C367.309 388.25 368.778 386.281 370.848 384.491L379.179 377.283ZM378.23 383.34L373.602 387.344C372.168 388.585 371.169 389.925 370.606 391.364C370.024 392.82 369.876 394.281 370.161 395.748C370.428 397.23 371.127 398.625 372.258 399.932C373.404 401.257 374.684 402.149 376.097 402.608C377.507 403.102 378.975 403.165 380.498 402.799C382.004 402.448 383.474 401.653 384.908 400.412L389.536 396.408L378.23 383.34Z" fill="#FD4E22"/>
<path d="M352.884 398.996L354.686 426.571L350.616 428.732L328.75 411.81L333.075 409.514L352.344 425.002L350.691 425.88L348.623 401.258L352.884 398.996ZM351.008 406.595L351.617 410.429L339.598 416.811L336.764 414.158L351.008 406.595Z" fill="#FD4E22"/>
<path d="M313.779 416.819L316.601 426.383L314.785 423.916L330.405 438.188L325.606 439.604L313.055 428.105L315.749 427.31L311.38 443.8L306.961 445.104L312.333 424.64L312.112 427.708L309.291 418.143L313.779 416.819Z" fill="#FD4E22"/>
<path d="M282.766 422.864C284.725 422.669 286.627 422.757 288.472 423.127C290.321 423.522 291.814 424.109 292.953 424.888L291.702 428.667C290.62 427.978 289.313 427.445 287.78 427.067C286.247 426.69 284.704 426.578 283.152 426.733C281.838 426.863 280.79 427.113 280.006 427.48C279.223 427.848 278.664 428.289 278.329 428.805C277.997 429.344 277.862 429.925 277.924 430.546C278 431.31 278.335 431.891 278.93 432.291C279.527 432.713 280.28 433.012 281.19 433.187C282.078 433.388 283.072 433.554 284.17 433.686C285.245 433.82 286.335 433.989 287.44 434.192C288.524 434.422 289.533 434.743 290.467 435.157C291.379 435.597 292.152 436.219 292.787 437.024C293.422 437.829 293.806 438.9 293.94 440.238C294.075 441.599 293.841 442.876 293.236 444.07C292.61 445.29 291.59 446.308 290.176 447.125C288.74 447.967 286.876 448.503 284.584 448.731C283.079 448.881 281.567 448.839 280.049 448.604C278.53 448.369 277.186 447.949 276.016 447.342L277.124 443.577C278.313 444.134 279.52 444.508 280.745 444.7C281.972 444.915 283.135 444.968 284.234 444.859C285.524 444.73 286.559 444.47 287.34 444.079C288.097 443.69 288.642 443.226 288.974 442.686C289.282 442.149 289.404 441.558 289.34 440.913C289.264 440.149 288.939 439.554 288.366 439.129C287.772 438.73 287.032 438.442 286.146 438.265C285.236 438.09 284.231 437.925 283.13 437.769C282.031 437.637 280.941 437.469 279.859 437.263C278.754 437.059 277.746 436.75 276.836 436.334C275.903 435.92 275.131 435.31 274.519 434.503C273.885 433.698 273.502 432.638 273.371 431.325C273.238 429.987 273.484 428.709 274.11 427.489C274.715 426.295 275.735 425.277 277.17 424.434C278.608 423.616 280.474 423.092 282.766 422.864Z" fill="#FD4E22"/>
</svg>
